Coordinates
version=1
nRows=9
nColumns=36
inDegrees=yes

Units are S.I. units (second, meters, Newtons, ...)
If the header above contains a line with 'inDegrees', this indicates whether rotational values are in degrees (yes) or radians (no).

endheader
time	pelvis_tilt	pelvis_list	pelvis_rotation	pelvis_tx	pelvis_ty	pelvis_tz	hip_flexion_r	hip_adduction_r	hip_rotation_r	knee_angle_r	knee_angle_r_beta	ankle_angle_r	subtalar_angle_r	mtp_angle_r	hip_flexion_l	hip_adduction_l	hip_rotation_l	knee_angle_l	knee_angle_l_beta	ankle_angle_l	subtalar_angle_l	mtp_angle_l	lumbar_extension	lumbar_bending	lumbar_rotation	arm_flex_r	arm_add_r	arm_rot_r	elbow_flex_r	pro_sup_r	arm_flex_l	arm_add_l	arm_rot_l	elbow_flex_l	pro_sup_l
0.9833333	31.82931531	0.53388583	-5.16427246	-0.17767108	0.66308084	-0.05931847	48.80640472	-4.44801146	4.41475778	-74.55279690928572	1.58924198	1.46980843	-7.4708638	-7.49998431	49.00933802	-13.0531411	2.68225259	-71.63497323428572	1.534399	-3.53587472	-4.04484036	-7.49998431	-49.06005681	-2.33940419	1.48628377	17.84816742	-14.58691925	77.74414844	4.30738924	38.53199351	12.02552914	-14.33809074	45.11251978	9.11698764	49.27361529
1.0	31.80638136	0.85978028	-5.29753631	-0.17312497	0.65847223	-0.06209294	49.23994263	-4.87608105	4.77520566	-75.05389031285713	1.59866046	1.62165306	-7.73431161	-7.49998446	48.92203577	-12.58818404	3.31363972	-72.12806030928571	1.54366699	-2.14023541	-2.27024836	-7.49998446	-48.55021738	-2.41915427	1.30115902	17.68102054	-14.8362767	77.76958818	4.30508039	38.51522516	11.68830576	-14.25328586	45.09427115	9.13226241	49.2683448
1.0166667	31.77735071	0.93519951	-5.51220558	-0.1732344	0.65801816	-0.06164441	49.56660155	-4.81142099	5.02089152	-75.38451569142859	1.60487485	1.52711993	-7.88309557	-7.49998574	48.84962129	-12.41689403	3.6967942	-72.82390041714285	1.5567459	-1.05421025	-1.24067074	-7.49998574	-48.18397771	-2.44910619	0.69894144	17.90514723	-14.64944293	76.93916471	4.13055566	39.81802971	11.22173294	-14.26664279	43.99929046	9.24405249	49.50021158
1.0333333	31.71726573	0.93448104	-5.42056584	-0.1741965	0.65797475	-0.06165251	49.6628106	-4.81527684	5.09229886	-75.49557752357143	1.60696235	1.79684241	-7.65205942	-7.49998762	48.35746033	-12.08987656	3.90809334	-72.6104031442857	1.55273303	0.06851856	-1.54204956	-7.49998762	-47.73026039	-2.36211141	0.6172784	17.6864917	-14.67619892	76.21034542	4.08892624	41.19715075	11.36091455	-14.02316004	43.02514443	8.98357212	49.96940004
1.05	31.60775425	0.79905542	-5.47775109	-0.17918755	0.65765115	-0.05864293	49.81574975	-4.42966341	5.04745699	-75.47273961571429	1.60653309	2.02887412	-7.81959058	-7.49998767	48.2082302	-12.25656543	4.00338719	-72.76730318999999	1.5556821	0.68362713	-2.53385177	-7.49998767	-47.73403838	-2.41253424	0.58711494	17.8468869	-14.58961515	76.20455805	4.1557676	41.14739816	11.64470821	-14.11306501	43.067182	8.99269475	49.97975045
1.0666667	31.65046142	0.7637459	-5.40484661	-0.18443864	0.65784361	-0.05591994	49.91984303	-4.03930166	4.85010676	-75.02959987785714	1.5982039	1.53618439	-8.5896332	-7.49998781	47.97655918	-12.28353972	4.03070752	-72.53904484428571	1.55139179	0.56633417	-4.11384798	-7.49998781	-47.96475134	-2.50364096	0.6604048	17.9699879	-14.55076318	76.18215117	4.27938429	40.98478523	12.05883446	-14.30655039	43.25931121	9.11172937	50.03863075
1.0833333	31.66869339	0.80275173	-5.35931525	-0.17803635	0.66054703	-0.05869203	49.7566274	-4.00642472	4.88872586	-74.87958989714286	1.59538434	1.56977048	-8.71874741	-7.49998796	47.76437932	-12.13214873	3.89530208	-72.5046945357143	1.55074615	0.19088433	-5.04072757	-7.49998796	-48.02114961	-2.54325105	0.75618909	17.93797188	-14.56277874	76.13186074	4.32527671	40.80831556	12.31012343	-14.37201669	43.42030258	9.2291194	50.08055592
1.1	31.64767409	0.724635	-5.51075779	-0.17846636	0.66055668	-0.05871381	49.51884646	-3.93369079	4.73446273	-74.5782409457143	1.58972022	1.26931797	-8.5293137	-7.49999001	47.67817973	-12.11782942	3.74573044	-72.13050105928572	1.54371286	0.35328336	-5.09282396	-7.49999001	-48.11404056	-2.60714999	0.90000069	18.03360483	-14.58465572	74.61344147	4.40748342	42.59968983	12.3296793	-14.42905067	42.26517929	9.51073506	51.0096906
1.1166667	31.64290011	0.6793307	-5.52504695	-0.18359136	0.66015996	-0.06099822	49.58279282	-4.10564877	4.733043	-74.35957859642856	1.58561028	1.32893076	-8.4192376	-7.49999006	47.75814151	-11.86129002	3.69906776	-72.11492083785714	1.54342002	0.41575554	-4.87850521	-7.49999006	-48.28334004	-2.46121028	0.98215485	18.25963383	-14.68277713	74.59832744	4.41210505	42.50938473	12.68577237	-14.45918102	42.29729543	9.6079044	51.01102667
